<svg width="430" height="263" viewBox="0 0 430 263" fill="none" xmlns="http://www.w3.org/2000/svg">
<path d="M0 0H430V246.113C430 254.95 422.837 262.113 414 262.113H16C7.16343 262.113 0 254.95 0 246.113V0Z" fill="#1A1A1A"/>
<g opacity="0.2">
<mask id="mask0_102_2253" style="mask-type:alpha" maskUnits="userSpaceOnUse" x="0" y="0" width="430" height="262">
<path d="M0 0H430V246C430 254.837 422.837 262 414 262H16C7.16343 262 0 254.837 0 246V0Z" fill="white"/>
</mask>
<g mask="url(#mask0_102_2253)">
<path d="M540.746 195.596C520.564 252.626 485.854 297.911 446.617 325.23C407.36 352.563 364.483 361.426 326.628 348.03C288.773 334.634 261.014 300.776 247.687 254.835C234.366 208.917 235.864 151.879 256.046 94.849C276.227 37.819 310.938 -7.46651 350.175 -34.7854C389.432 -62.1183 432.308 -70.9809 470.163 -57.5852C508.018 -44.1895 535.777 -10.3311 549.105 35.61C562.426 81.5276 560.927 138.566 540.746 195.596Z" stroke="white" stroke-width="24"/>
<path d="M550.272 87.2485C536.42 161.325 479.96 207.405 428.733 197.826C377.506 188.247 341.511 124.878 355.363 50.8017C369.215 -23.2746 425.676 -69.3545 476.903 -59.7753C528.13 -50.1962 564.124 13.1722 550.272 87.2485Z" stroke="white" stroke-width="24"/>
<path d="M259.503 -104.834C270.221 -68.3789 257.644 -27.1582 225.343 10.5578C193.129 48.1713 142.241 80.9477 80.1185 99.2119C17.9964 117.476 -42.5339 117.457 -89.9791 103.264C-137.554 89.0317 -170.439 61.1772 -181.157 24.7218C-191.875 -11.7336 -179.298 -52.9542 -146.997 -90.6702C-114.783 -128.284 -63.8946 -161.06 -1.77243 -179.324C60.3497 -197.589 120.88 -197.57 168.325 -183.376C215.9 -169.144 248.785 -141.29 259.503 -104.834Z" stroke="white" stroke-width="24"/>
</g>
</g>
</svg>
