<svg width="32" height="32" viewBox="0 0 32 32" fill="none" xmlns="http://www.w3.org/2000/svg">
<path d="M11.9998 16L14.6665 18.6666L20.6665 12.6666M9.7782 5.09155C10.85 5.00602 11.8675 4.58457 12.6858 3.88719C14.5955 2.25977 17.4042 2.25977 19.3139 3.88719C20.1322 4.58457 21.1497 5.00602 22.2215 5.09155C24.7226 5.29114 26.7087 7.27722 26.9082 9.77832C26.9938 10.8501 27.4152 11.8676 28.1126 12.6859C29.74 14.5956 29.74 17.4043 28.1126 19.314C27.4152 20.1323 26.9938 21.1498 26.9082 22.2216C26.7087 24.7227 24.7226 26.7088 22.2215 26.9084C21.1497 26.9939 20.1322 27.4154 19.3139 28.1127C17.4042 29.7401 14.5955 29.7401 12.6858 28.1127C11.8675 27.4154 10.85 26.9939 9.7782 26.9084C7.2771 26.7088 5.29102 24.7227 5.09143 22.2216C5.0059 21.1498 4.58445 20.1323 3.88706 19.314C2.25965 17.4043 2.25965 14.5956 3.88706 12.6859C4.58445 11.8676 5.0059 10.8501 5.09143 9.77832C5.29102 7.27722 7.2771 5.29114 9.7782 5.09155Z" stroke="#4CA977" stroke-width="1.5" stroke-linecap="round" stroke-linejoin="round"/>
</svg>
